%TF.GenerationSoftware,KiCad,Pcbnew,10.0.3*%
%TF.CreationDate,2026-05-29T19:07:42+05:30*%
%TF.ProjectId,LDO_Kicad,4c444f5f-4b69-4636-9164-2e6b69636164,rev?*%
%TF.SameCoordinates,Original*%
%TF.FileFunction,Copper,L1,Top*%
%TF.FilePolarity,Positive*%
%FSLAX46Y46*%
G04 Gerber Fmt 4.6, Leading zero omitted, Abs format (unit mm)*
G04 Created by KiCad (PCBNEW 10.0.3) date 2026-05-29 19:07:42*
%MOMM*%
%LPD*%
G01*
G04 APERTURE LIST*
G04 Aperture macros list*
%AMRoundRect*
0 Rectangle with rounded corners*
0 $1 Rounding radius*
0 $2 $3 $4 $5 $6 $7 $8 $9 X,Y pos of 4 corners*
0 Add a 4 corners polygon primitive as box body*
4,1,4,$2,$3,$4,$5,$6,$7,$8,$9,$2,$3,0*
0 Add four circle primitives for the rounded corners*
1,1,$1+$1,$2,$3*
1,1,$1+$1,$4,$5*
1,1,$1+$1,$6,$7*
1,1,$1+$1,$8,$9*
0 Add four rect primitives between the rounded corners*
20,1,$1+$1,$2,$3,$4,$5,0*
20,1,$1+$1,$4,$5,$6,$7,0*
20,1,$1+$1,$6,$7,$8,$9,0*
20,1,$1+$1,$8,$9,$2,$3,0*%
G04 Aperture macros list end*
%TA.AperFunction,ComponentPad*%
%ADD10C,1.600000*%
%TD*%
%TA.AperFunction,ComponentPad*%
%ADD11RoundRect,0.250000X-0.550000X-0.550000X0.550000X-0.550000X0.550000X0.550000X-0.550000X0.550000X0*%
%TD*%
%TA.AperFunction,ComponentPad*%
%ADD12R,1.050000X1.500000*%
%TD*%
%TA.AperFunction,ComponentPad*%
%ADD13O,1.050000X1.500000*%
%TD*%
%TA.AperFunction,ComponentPad*%
%ADD14R,1.700000X1.700000*%
%TD*%
%TA.AperFunction,ComponentPad*%
%ADD15C,1.700000*%
%TD*%
%TA.AperFunction,ComponentPad*%
%ADD16R,1.905000X2.000000*%
%TD*%
%TA.AperFunction,ComponentPad*%
%ADD17O,1.905000X2.000000*%
%TD*%
%TA.AperFunction,Conductor*%
%ADD18C,0.200000*%
%TD*%
G04 APERTURE END LIST*
D10*
%TO.P,Cc1,2*%
%TO.N,Net-(U2-REF)*%
X95000000Y-29000000D03*
%TO.P,Cc1,1*%
%TO.N,/Vout*%
X90000000Y-29000000D03*
%TD*%
%TO.P,Rl1,1*%
%TO.N,/Vout*%
X107840000Y-41500000D03*
%TO.P,Rl1,2*%
%TO.N,GND*%
X118000000Y-41500000D03*
%TD*%
D11*
%TO.P,Cout1,1*%
%TO.N,/Vout*%
X110500000Y-29000000D03*
D10*
%TO.P,Cout1,2*%
%TO.N,GND*%
X112500000Y-29000000D03*
%TD*%
D12*
%TO.P,U2,1,REF_1*%
%TO.N,Net-(U2-REF)*%
X52500000Y-37000000D03*
D13*
%TO.P,U2,2,A_2*%
%TO.N,Net-(Q1-B)*%
X51230000Y-37000000D03*
%TO.P,U2,3,K_3*%
%TO.N,GND*%
X49960000Y-37000000D03*
%TD*%
D14*
%TO.P,Vin1,1,+_1*%
%TO.N,Net-(Q1-E)*%
X16615000Y-20725000D03*
D15*
%TO.P,Vin1,2,-_2*%
%TO.N,GND*%
X16615000Y-23265000D03*
%TD*%
D10*
%TO.P,Rb1,1*%
%TO.N,Net-(Q1-E)*%
X31840000Y-31000000D03*
%TO.P,Rb1,2*%
%TO.N,Net-(Q1-B)*%
X42000000Y-31000000D03*
%TD*%
%TO.P,R2,2*%
%TO.N,GND*%
X84000000Y-30500000D03*
%TO.P,R2,1*%
%TO.N,Net-(R1-Pad2)*%
X73840000Y-30500000D03*
%TD*%
%TO.P,R1,2*%
%TO.N,Net-(R1-Pad2)*%
X84000000Y-23500000D03*
%TO.P,R1,1*%
%TO.N,Net-(Q1-C)*%
X73840000Y-23500000D03*
%TD*%
D16*
%TO.P,Q1,1,B_1*%
%TO.N,Net-(Q1-B)*%
X54000000Y-25500000D03*
D17*
%TO.P,Q1,2,C_2*%
%TO.N,Net-(Q1-C)*%
X51460000Y-25500000D03*
%TO.P,Q1,3,E_3*%
%TO.N,Net-(Q1-E)*%
X48920000Y-25500000D03*
%TD*%
D11*
%TO.P,Cin1,1*%
%TO.N,GND*%
X34500000Y-21500000D03*
D10*
%TO.P,Cin1,2*%
%TO.N,Net-(Q1-E)*%
X36500000Y-21500000D03*
%TD*%
%TO.N,Net-(R1-Pad2)*%
D18*
X77000000Y-30500000D02*
X84000000Y-23500000D01*
X73840000Y-30500000D02*
X77000000Y-30500000D01*
%TO.N,/Vout*%
X110500000Y-29500000D02*
X107840000Y-32160000D01*
X110500000Y-29000000D02*
X110500000Y-29500000D01*
X107840000Y-32160000D02*
X107840000Y-41500000D01*
X108500000Y-27000000D02*
X110500000Y-29000000D01*
X92000000Y-27000000D02*
X108500000Y-27000000D01*
X90000000Y-29000000D02*
X92000000Y-27000000D01*
%TO.N,Net-(U2-REF)*%
X87000000Y-37000000D02*
X95000000Y-29000000D01*
X52500000Y-37000000D02*
X87000000Y-37000000D01*
%TO.N,Net-(Q1-C)*%
X53460000Y-23500000D02*
X73840000Y-23500000D01*
X51460000Y-25500000D02*
X53460000Y-23500000D01*
%TO.N,Net-(Q1-B)*%
X54000000Y-25500000D02*
X51230000Y-28270000D01*
X51230000Y-28270000D02*
X51230000Y-37000000D01*
X48500000Y-31000000D02*
X54000000Y-25500000D01*
X42000000Y-31000000D02*
X48500000Y-31000000D01*
%TO.N,Net-(Q1-E)*%
X37340000Y-25500000D02*
X48920000Y-25500000D01*
X31840000Y-31000000D02*
X37340000Y-25500000D01*
X27000000Y-31000000D02*
X31840000Y-31000000D01*
X16725000Y-20725000D02*
X27000000Y-31000000D01*
X16615000Y-20725000D02*
X16725000Y-20725000D01*
X34500000Y-19500000D02*
X36500000Y-21500000D01*
X17840000Y-19500000D02*
X34500000Y-19500000D01*
X16615000Y-20725000D02*
X17840000Y-19500000D01*
%TO.N,Net-(U2-REF)*%
X52500000Y-37000000D02*
X52500000Y-36775000D01*
%TO.N,Net-(Q1-E)*%
X31840000Y-31000000D02*
X31840000Y-31340000D01*
%TD*%
M02*
